# File exported by Houdini 17.0.352 (www.sidefx.com)
# 76 points
# 212 vertices
# 55 primitives
# Bounds: [-0.785467029, -0.0258230995, -0.811042011] to [0.936653614, 0.0537571311, 1.17734003]
g 
v 0.258913994 0 -0.252995998
v -0.113922 0 -0.312175989
v -0.52818501 0 -0.155348003
v -0.702767015 0 0.202693
v -0.445331991 0 0.466044992
v -0.164224997 0 0.581447005
v 0.227794439 0 0.398085415
v 0.526494741 0 0.0108933374
v -0.520210028 0.0270000007 -0.146605253
v -0.68948251 0.0270000007 0.200546727
v -0.439053535 0.0270000007 0.456731617
v -0.166617811 0.0270000007 0.568573833
v 0.251673073 0.0270000007 -0.24300763
v -0.112760365 0.0270000007 -0.300853908
v 0.221016526 0.0270000007 0.389355987
v 0.512118816 0.0270000007 0.00696261972
v 0.51706928 0.0319599994 0.134901732
v 0.331090868 0 0.400704056
v 0.400000006 8.74227979e-09 0.600000024
v 0.610215724 -0.0258230995 0.732002974
v 0.800000012 -8.74227979e-09 0.600000024
v 0.798477292 0.0181651004 0.319981277
v 0.410195947 0.0282788668 0.595929682
v 0.606727779 0.00309240143 0.721018493
v 0.787879348 0.027113745 0.601939857
v 0.515032172 0.0537571311 0.154766947
v 0.340818942 0.0245165806 0.416592419
v 0.788692355 0.0424622595 0.333511263
v 0.936653614 0 -0.405354559
v 0.741234004 0 -0.602159977
v 0.525225997 0 -0.669270039
v 0.250037014 0 -0.551856995
v 0.276454926 0 -0.331582814
v 0.575528979 0 -0.0310696997
v 0.839188993 0 -0.147270918
v 0.52644676 0.0270000007 -0.658303618
v 0.26670596 0.0270000007 -0.541388988
v 0.285972238 0.0270000007 -0.337256998
v 0.580895483 0.0270000007 -0.0421122946
v 0.926410556 0.0270000007 -0.400724351
v 0.736470163 0.0270000007 -0.590045929
v 0.825521767 0.0270000007 -0.158163637
v -0.208210379 0 0.723922431
v -0.351839662 0 0.666450679
v -0.541073024 0 0.883807003
v -0.472811013 0 1.08176994
v -0.244130999 0 1.17734003
v -0.158803001 0 0.948656023
v -0.527802944 0.0270000007 0.888547182
v -0.464019448 0.0270000007 1.07352209
v -0.250439644 0.0270000007 1.1627816
v -0.171153605 0.0270000007 0.950290382
v -0.216417342 0.0270000007 0.731357813
v -0.352974683 0.0270000007 0.680073977
v 0.301165104 0 0.741464019
v 0.151245877 0 0.487731338
v -0.103405833 0 0.598660111
v 0 0 1
v 0.18991828 0 0.951502681
v 0.306927115 0 0.735702991
v 0.148070827 0.0270000007 0.502601206
v -0.0922473297 0.0270000007 0.604709327
v 0.0105905943 0.0270000007 0.983870566
v 0.180818662 0.0270000007 0.943310738
v 0.292072237 0.0270000007 0.747654319
v 0.292072237 0.0270000007 0.747654319
v -0.117183998 0 -0.517228007
v -0.215121999 0 -0.811042011
v -0.622952819 0 -0.810703814
v -0.785467029 0 -0.448096007
v -0.555024028 0 -0.327113986
v -0.617453337 0.0270000007 -0.800108612
v -0.768324435 0.0270000007 -0.451519966
v -0.554574072 0.0270000007 -0.339301556
v -0.130804971 0.0270000007 -0.523305893
v -0.222833008 0.0270000007 -0.799390018
vn 0 0.99999994 0
vn 0 1 -0
vn 0 1 -0
vn 0 0.99999994 0
vn 0 1 0
vn 0 1 0
vn 0 1 0
vn 0 0.99999994 0
vn 0 1 0
vn 0 0.99999994 0
vn 0 0.99999994 0
vn 0 1 0
vn -0.601935208 0.401337236 -0.690363944
vn -0.832408845 0.377296537 -0.405885339
vn -0.832408845 0.377296537 -0.405885339
vn -0.601935208 0.401337236 -0.690363944
vn -0.662243664 0.377296478 0.647364438
vn -0.531301916 0.384025544 0.755144179
vn -0.531301916 0.384025544 0.755144179
vn -0.662243664 0.377296478 0.647364438
vn -0.531301916 0.384025544 0.755144179
vn 0.0917293355 0.418372482 0.903631628
vn 0.0917293355 0.418372482 0.903631628
vn -0.531301916 0.384025544 0.755144179
vn 0.0917293355 0.418372482 0.903631628
vn 0.579376042 0.416162997 0.700807929
vn 0.579376042 0.416162997 0.700807929
vn 0.0917293355 0.418372482 0.903631628
vn 0.579376042 0.416162997 0.700807929
vn 0.722842813 0.413043648 0.553979516
vn 0.722842813 0.413043648 0.553979516
vn 0.579376042 0.416162997 0.700807929
vn 0.656288266 0.338371187 -0.674381793
vn 0.413944691 0.373383075 -0.830201685
vn 0.413944691 0.373383075 -0.830201685
vn 0.656288266 0.338371187 -0.674381793
vn 0.413944691 0.373383075 -0.830201685
vn -0.113823988 0.388359904 -0.914451063
vn -0.113823988 0.388359904 -0.914451063
vn 0.413944691 0.373383075 -0.830201685
vn -0.113823988 0.388359904 -0.914451063
vn -0.601935208 0.401337236 -0.690363944
vn -0.601935208 0.401337236 -0.690363944
vn -0.113823988 0.388359904 -0.914451063
vn -0.0141701614 0.997940302 0.0625658259
vn -0.000119844255 0.980289161 0.197568208
vn 0.00144971069 0.994808793 0.101751074
vn 0.0571080223 0.998094261 -0.0233749337
vn -0.030655751 0.9982602 0.0503671356
vn 0.0106869312 0.999903381 0.00889291521
vn -0.030655751 0.9982602 0.0503671356
vn -0.0141701614 0.997940302 0.0625658259
vn 0.0106869312 0.999903381 0.00889291521
vn -0.0141701614 0.997940302 0.0625658259
vn 0.00144971069 0.994808793 0.101751074
vn 0.0106869312 0.999903381 0.00889291521
vn -0.708359182 0.287628472 0.644590616
vn -0.48875168 0.275236309 0.827868819
vn -0.48875168 0.275236309 0.827868819
vn -0.708359182 0.287628472 0.644590616
vn 0.51349628 0.274300933 0.813068569
vn 0.820794165 0.374200702 0.431590885
vn 0.820794165 0.374200702 0.431590885
vn 0.51349628 0.274300933 0.813068569
vn 0.820794165 0.374200702 0.431590885
vn 0.735565007 0.553591609 -0.390487462
vn 0.922152519 0.386176974 0.0224045683
vn 0.820794165 0.374200702 0.431590885
vn 0.735565007 0.553591609 -0.390487462
vn 0.459077388 0.595425367 -0.659330487
vn 0.0571080223 0.998094261 -0.0233749337
vn 0.0106869312 0.999903381 0.00889291521
vn -0.750508785 0.477405369 -0.456968963
vn -0.884616256 0.433962405 -0.170676947
vn -0.884616256 0.433962405 -0.170676947
vn -0.750508785 0.477405369 -0.456968963
vn -0.884616256 0.433962405 -0.170676947
vn -0.708359182 0.287628472 0.644590616
vn -0.708359182 0.287628472 0.644590616
vn -0.884616256 0.433962405 -0.170676947
vn 0 1 0
vn 0 0.99999994 0
vn 0 1 0
vn 0 1 0
vn 0 1 0
vn 0 1 0
vn 0 1 0
vn 0 1 0
vn 0 1 0
vn 0 1 0
vn 0 1 0
vn -0.0917027071 0.445667416 -0.890489161
vn -0.35938412 0.444710046 -0.820412099
vn -0.35938412 0.444710046 -0.820412099
vn -0.0917027071 0.445667416 -0.890489161
vn -0.898908377 0.427318364 0.0967608467
vn -0.770651519 0.415381074 0.483275086
vn -0.770651519 0.415381074 0.483275086
vn -0.898908377 0.427318364 0.0967608467
vn -0.770651519 0.415381074 0.483275086
vn -0.654297173 0.382327318 0.652473152
vn -0.654297054 0.382327259 0.652473092
vn -0.770651519 0.415381074 0.483275086
vn 0.381334931 0.397621542 0.834554136
vn 0.649445772 0.431417018 0.626178384
vn 0.649445772 0.431417018 0.626178384
vn 0.381334931 0.397621542 0.834554136
vn 0.649445772 0.431417018 0.626178384
vn 0.846415997 0.413669646 0.335346848
vn 0.846415997 0.413669646 0.335346848
vn 0.649445772 0.431417018 0.626178384
vn 0.653576255 0.383889854 -0.652278006
vn 0.496133804 0.397456378 -0.771932483
vn 0.496133804 0.397456378 -0.771932483
vn 0.653576255 0.383889854 -0.652278006
vn 0.496133804 0.397456378 -0.771932483
vn -0.0917027071 0.445667416 -0.890489161
vn -0.0917027071 0.445667416 -0.890489161
vn 0.496133804 0.397456378 -0.771932483
vn 0 1 0
vn 0 1 -0
vn 0 1 -0
vn 0 1 0
vn 0 1 0
vn 0 1 0
vn 0 1 0
vn 0 1 0
vn -0.874256313 0.41566059 -0.250803351
vn -0.642043948 0.407444268 0.649437189
vn -0.642043948 0.407444268 0.649437189
vn -0.874256313 0.41566059 -0.250803351
vn -0.642043948 0.407444268 0.649437189
vn -0.357102275 0.377296835 0.854473531
vn -0.357102275 0.377296835 0.854473531
vn -0.642043948 0.407444268 0.649437189
vn 0.867660701 0.377296746 0.323746949
vn 0.917686999 0.390625983 0.0725392327
vn 0.917686999 0.390625983 0.0725392327
vn 0.867660701 0.377296746 0.323746949
vn 0.917686999 0.390625983 0.0725392327
vn 0.749268413 0.424374133 -0.508432329
vn 0.749268413 0.424374133 -0.508432329
vn 0.917686999 0.390625983 0.0725392327
vn 0.749268413 0.424374133 -0.508432329
vn 0.332884938 0.392036021 -0.857610226
vn 0.332884938 0.392036021 -0.857610226
vn 0.749268413 0.424374133 -0.508432329
vn -0.707702756 0.364792466 -0.605048239
vn -0.874256313 0.41566059 -0.250803351
vn -0.874256313 0.41566059 -0.250803351
vn -0.707702756 0.364792466 -0.605048239
vn 0 1 0
vn 0 1 0
vn 0 1 0
vn 0 1 0
vn 0 0 -0
vn 0 0 -0
vn 0 0 -0
vn 0 1 0
vn 0 1 0
vn 0 1 0
vn -0.365238696 0.382735252 -0.8485955
vn -0.365238696 0.382735252 -0.8485955
vn -0.365238696 0.382735252 -0.8485955
vn -0.365238667 0.382735252 -0.84859544
vn -0.885889649 0.400500089 0.234092176
vn -0.885889649 0.400500089 0.234092176
vn -0.885889649 0.400500089 0.234092176
vn -0.885889649 0.400500089 0.234092176
vn 0.220478714 0.39549166 0.89161402
vn 0.596838355 0.389193773 0.701649606
vn 0.596838355 0.389193773 0.701649606
vn 0.220478714 0.39549166 0.89161402
vn 0.596838355 0.389193773 0.701649606
vn 0.824288487 0.333820194 0.457288355
vn 0.824288487 0.333820194 0.457288355
vn 0.596838355 0.389193773 0.701649606
vn -0.705014288 -0.0757632032 -0.70513463
vn -0.705014288 -0.0757632032 -0.70513463
vn -0.705014288 -0.0757632032 -0.70513463
vn -0.705014288 -0.0757632032 -0.70513463
vn 0.801645398 0.366353303 -0.472387403
vn 0.801645398 0.366353303 -0.472387403
vn 0.801645398 0.366353303 -0.472387403
vn 0.801645398 0.366353303 -0.472387403
vn 0 1 0
vn 0 0.99999994 -0
vn 0 1 0
vn 0 1 0
vn 0 1 0
vn 0 1 0
vn 0 1 0
vn -0.83845067 0.400624871 -0.369459271
vn -0.83845067 0.400624871 -0.369459271
vn -0.83845067 0.400624871 -0.369459271
vn -0.83845067 0.400624871 -0.369459271
vn -0.43047756 0.377297014 0.819961011
vn 0.0979531929 0.408084393 0.907674074
vn 0.0979531929 0.408084393 0.907674074
vn -0.43047756 0.377297014 0.819961011
vn 0.0979531929 0.408084393 0.907674074
vn 0.368847221 0.377297252 0.849469543
vn 0.368847221 0.377297252 0.849469543
vn 0.0979531929 0.408084393 0.907674074
vn 0.878568411 0.377296597 -0.292856127
vn 0.878568411 0.377296597 -0.292856127
vn 0.878568411 0.377296597 -0.292856127
vn 0.878568411 0.377296597 -0.292856127
vn 0.000438300631 0.380939364 -0.924599946
vn 0.000438300631 0.380939364 -0.924599946
vn 0.00043830066 0.380939364 -0.924600005
vn 0.000438300631 0.380939364 -0.924599946
g 
f 9//1 10//2 11//3 12//4
f 13//5 14//6 15//7 16//8
f 14//9 9//10 12//11 15//12
f 3//13 4//14 10//15 9//16
f 4//17 5//18 11//19 10//20
f 5//21 6//22 12//23 11//24
f 6//25 7//26 15//27 12//28
f 7//29 8//30 16//31 15//32
f 8//33 1//34 13//35 16//36
f 1//37 2//38 14//39 13//40
f 2//41 3//42 9//43 14//44
f 23//45 24//46 25//47
f 26//48 27//49 28//50
f 27//51 23//52 28//53
f 23//54 25//55 28//56
f 19//57 20//58 24//59 23//60
f 20//61 21//62 25//63 24//64
f 21//65 22//66 28//67 25//68
f 22//69 17//70 26//71 28//72
f 17//73 18//74 27//75 26//76
f 18//77 19//78 23//79 27//80
f 36//81 37//82 38//83 39//84
f 40//85 41//86 42//87
f 41//88 36//89 39//90 42//91
f 31//92 32//93 37//94 36//95
f 32//96 33//97 38//98 37//99
f 33//100 34//101 39//102 38//103
f 34//104 35//105 42//106 39//107
f 35//108 29//109 40//110 42//111
f 29//112 30//113 41//114 40//115
f 30//116 31//117 36//118 41//119
f 49//120 50//121 51//122 52//123
f 53//124 54//125 49//126 52//127
f 45//128 46//129 50//130 49//131
f 46//132 47//133 51//134 50//135
f 47//136 48//137 52//138 51//139
f 48//140 43//141 53//142 52//143
f 43//144 44//145 54//146 53//147
f 44//148 45//149 49//150 54//151
f 61//152 62//153 63//154 64//155
f 65//156 64//157 66//158
f 65//159 61//160 64//161
f 56//162 57//163 62//164 61//165
f 57//166 58//167 63//168 62//169
f 58//170 59//171 64//172 63//173
f 59//174 60//175 66//176 64//177
f 60//178 55//179 65//180 66//181
f 55//182 56//183 61//184 65//185
f 72//186 73//187 74//188
f 75//189 76//190 72//191 74//192
f 69//193 70//194 73//195 72//196
f 70//197 71//198 74//199 73//200
f 71//201 67//202 75//203 74//204
f 67//205 68//206 76//207 75//208
f 68//209 69//210 72//211 76//212
