# File exported by Houdini 17.0.352 (www.sidefx.com)
# 52 points
# 200 vertices
# 50 primitives
# Bounds: [-0.260612875, 0, -2.23889303] to [0.280113637, 0.112000003, 2.24773192]
g 
v -0.200886309 0 -1.12785983
v -0.20152624 0 0.00676182145
v -0.241602585 0 1.15944278
v -0.208544701 0 2.21942496
v -0.198942959 0 2.22873187
v 0.253727078 0 2.22873187
v 0.220376834 0 1.15937483
v 0.260474116 0 0.00609075883
v 0.261113554 0 -1.12761807
v 0.246708542 0 -2.21051216
v 0.237201974 0 -2.21989298
v -0.215412885 0 -2.21989298
v -0.220526055 0.0189999994 0.00642629014
v -0.219886377 0.0189999994 -1.12773895
v -0.234414577 0.0189999994 -2.21989465
v -0.234414577 0.0930000022 -2.21989465
v -0.219886377 0.0930000022 -1.12773895
v -0.220526055 0.0930000022 0.00642629014
v -0.260612875 0.0930000022 1.15940881
v -0.227263391 0.0930000022 2.22874117
v -0.227263391 0.0189999994 2.22874117
v -0.260612875 0.0189999994 1.15940881
v -0.20152624 0.112000003 0.00676182145
v -0.200886309 0.112000003 -1.12785983
v -0.215412885 0.112000003 -2.21989298
v 0.237201959 0.112000003 -2.21989298
v 0.246708542 0.112000003 -2.21051216
v 0.261113554 0.112000003 -1.12761807
v 0.260474116 0.112000003 0.00609075883
v 0.220376834 0.112000003 1.15937483
v 0.253727078 0.112000003 2.22873187
v -0.198942959 0.112000003 2.22873187
v -0.208544716 0.112000003 2.21942496
v -0.241602585 0.112000003 1.15944278
v 0.246332705 0.0930000022 -2.23889303
v -0.215667307 0.0930000022 -2.23889303
v -0.215667307 0.0189999994 -2.23889303
v 0.246332705 0.0189999994 -2.23889303
v 0.265585423 0.0930000022 -2.21989465
v 0.265585423 0.0189999994 -2.21989465
v 0.280113637 0.0189999994 -1.12773895
v 0.279473931 0.0189999994 0.00642629014
v 0.239387125 0.0189999994 1.15940881
v 0.272736609 0.0189999994 2.22874117
v 0.272736609 0.0930000022 2.22874117
v 0.239387125 0.0930000022 1.15940881
v 0.279473931 0.0930000022 0.00642629014
v 0.280113637 0.0930000022 -1.12773895
v -0.207671136 0.0930000022 2.24773192
v 0.254328877 0.0930000022 2.24773192
v 0.254328877 0.0189999994 2.24773192
v -0.207671136 0.0189999994 2.24773192
vn -0.379024893 -0.925362289 -0.0066938824
vn -0.923106909 -0.384197712 -0.0163028166
vn -0.923610389 -0.38328743 0.00588234235
vn -0.381226748 -0.924478412 0.00242796866
vn -0.389369249 -0.921081483 -0.000696364441
vn -0.924986243 -0.379997015 -0.00165425916
vn -0.923106909 -0.384197712 -0.0163028166
vn -0.379024893 -0.925362289 -0.0066938824
vn -0.397502989 -0.9016276 0.170467123
vn -0.711910605 -0.500143409 0.492990792
vn -0.924986243 -0.379997015 -0.00165425916
vn -0.389369249 -0.921081483 -0.000696364441
vn 0.160620049 -0.874669611 0.457333893
vn 0.164889991 -0.458157569 0.873443186
vn -0.470559359 -0.500144005 0.726931751
vn -0.157991707 -0.901628137 0.402623177
vn 0.375662714 -0.926756203 0.000671834277
vn 0.922631562 -0.385679036 0.00165005669
vn 0.878158808 -0.458157063 0.137583271
vn 0.706763029 -0.707106888 -0.0220419541
vn 0.386132896 -0.922417939 0.00681942189
vn 0.924326956 -0.381252408 0.0163243636
vn 0.922631562 -0.385679036 0.00165005669
vn 0.375662714 -0.926756203 0.000671834277
vn 0.384109735 -0.923284233 -0.00244634389
vn 0.924105048 -0.38209331 -0.00588547019
vn 0.924326956 -0.381252408 0.0163243636
vn 0.386132896 -0.922417939 0.00681942189
vn 0.399317116 -0.902139306 -0.163372681
vn 0.715835869 -0.501643658 -0.485729009
vn 0.924105048 -0.38209331 -0.00588547019
vn 0.384109735 -0.923284233 -0.00244634389
vn -0.160866663 -0.874813616 -0.456971824
vn -0.16264677 -0.457301229 -0.874312162
vn 0.476166755 -0.501644731 -0.72223109
vn 0.158042058 -0.902140379 -0.4014543
vn -0.381226748 -0.924478412 0.00242796866
vn -0.923610389 -0.38328743 0.00588234235
vn -0.876398563 -0.457300603 -0.151002601
vn -0.707044363 -0.70710659 0.00940533169
vn -0.878818095 0.16242452 -0.448661268
vn -0.460312784 0.162424281 -0.87277168
vn -0.71179533 0 -0.702387035
vn -0.71179533 -0 -0.702387035
vn -0.923610389 0.38328737 0.00588234235
vn -0.381226778 0.924478412 0.0024279689
vn -0.459072232 0.874813139 -0.154773548
vn -0.707044482 0.707106531 0.00940532889
vn -0.923106909 0.384197712 -0.0163028184
vn -0.379024893 0.925362289 -0.0066938824
vn -0.381226778 0.924478412 0.0024279689
vn -0.923610389 0.38328737 0.00588234235
vn -0.924986243 0.379996985 -0.00165425986
vn -0.389369279 0.921081483 -0.00069636642
vn -0.379024893 0.925362289 -0.0066938824
vn -0.923106909 0.384197712 -0.0163028184
vn -0.711910665 0.50014323 0.492990792
vn -0.397503167 0.901627541 0.170467377
vn -0.389369279 0.921081483 -0.00069636642
vn -0.924986243 0.379996985 -0.00165425986
vn -0.711910605 -0.500143409 0.492990792
vn -0.470559359 -0.500144005 0.726931751
vn -0.470559359 0.500144005 0.72693181
vn -0.711910665 0.50014323 0.492990792
vn 0.158041775 0.902140379 -0.401454329
vn 0.476166844 0.50164479 -0.72223109
vn -0 0.707107723 -0.707105815
vn -0 0.707107782 -0.707105756
vn 0.384109735 0.923284233 -0.00244634436
vn 0.924105048 0.382093251 -0.00588547019
vn 0.715835869 0.501643658 -0.485729009
vn 0.399317026 0.902139246 -0.163372889
vn 0.386132926 0.922417939 0.00681942189
vn 0.924326956 0.381252408 0.0163243636
vn 0.924105048 0.382093251 -0.00588547019
vn 0.384109735 0.923284233 -0.00244634436
vn 0.375662744 0.926756203 0.000671834277
vn 0.922631562 0.385678947 0.00165005738
vn 0.924326956 0.381252408 0.0163243636
vn 0.386132926 0.922417939 0.00681942189
vn 0.462119013 0.874669313 0.146285996
vn 0.878158808 0.458157063 0.137583286
vn 0.922631562 0.385678947 0.00165005738
vn 0.375662744 0.926756203 0.000671834277
vn -0.157991484 0.901628137 0.402623177
vn -0.470559359 0.500144005 0.72693181
vn 0.164889976 0.45815748 0.873443186
vn -0 0.707107723 0.707105935
vn 0.476166844 0.50164479 -0.72223109
vn 0.715835869 0.501643658 -0.485729009
vn 0.715835869 -0.501643658 -0.485729009
vn 0.476166755 -0.501644731 -0.72223109
vn 0.71804297 0 0.695998847
vn 0.71804297 -0 0.695998847
vn 0.71804297 -0 0.695998847
vn 0.71804297 0 0.695998847
vn -0.397502989 -0.9016276 0.170467123
vn -0.157991707 -0.901628137 0.402623177
vn -0.470559359 -0.500144005 0.726931751
vn -0.711910605 -0.500143409 0.492990792
vn -0.160866663 -0.874813616 -0.456971824
vn -0.876398563 -0.457300603 -0.151002601
vn -0.16264677 -0.457301229 -0.874312162
vn -0.878818095 0.16242452 -0.448661268
vn -0.459072232 0.874813139 -0.154773548
vn -0.460312784 0.162424281 -0.87277168
vn -0.711910665 0.50014323 0.492990792
vn -0.470559359 0.500144005 0.72693181
vn -0.157991484 0.901628137 0.402623177
vn -0.397503167 0.901627541 0.170467377
vn 0.158041775 0.902140379 -0.401454329
vn 0.399317026 0.902139246 -0.163372889
vn 0.715835869 0.501643658 -0.485729009
vn 0.476166844 0.50164479 -0.72223109
vn 0.399317116 -0.902139306 -0.163372681
vn 0.158042058 -0.902140379 -0.4014543
vn 0.476166755 -0.501644731 -0.72223109
vn 0.715835869 -0.501643658 -0.485729009
vn 0.160620049 -0.874669611 0.457333893
vn 0.878158808 -0.458157063 0.137583271
vn 0.164889991 -0.458157569 0.873443186
vn 0.462119013 0.874669313 0.146285996
vn 0.164889976 0.45815748 0.873443186
vn 0.878158808 0.458157063 0.137583286
vn -0.381226748 -0.924478412 0.00242796866
vn -0.160866663 -0.874813616 -0.456971824
vn 0.158042058 -0.902140379 -0.4014543
vn 0.399317116 -0.902139306 -0.163372681
vn 0.384109735 -0.923284233 -0.00244634389
vn -0.381226748 -0.924478412 0.00242796866
vn 0.384109735 -0.923284233 -0.00244634389
vn 0.386132896 -0.922417939 0.00681942189
vn -0.379024893 -0.925362289 -0.0066938824
vn -0.379024893 -0.925362289 -0.0066938824
vn 0.386132896 -0.922417939 0.00681942189
vn 0.375662714 -0.926756203 0.000671834277
vn -0.389369249 -0.921081483 -0.000696364441
vn -0.397502989 -0.9016276 0.170467123
vn -0.389369249 -0.921081483 -0.000696364441
vn 0.375662714 -0.926756203 0.000671834277
vn 0.160620049 -0.874669611 0.457333893
vn -0.157991707 -0.901628137 0.402623177
vn 0.399317026 0.902139246 -0.163372889
vn 0.158041775 0.902140379 -0.401454329
vn -0.459072232 0.874813139 -0.154773548
vn -0.381226778 0.924478412 0.0024279689
vn 0.384109735 0.923284233 -0.00244634436
vn -0.381226778 0.924478412 0.0024279689
vn -0.379024893 0.925362289 -0.0066938824
vn 0.386132926 0.922417939 0.00681942189
vn 0.384109735 0.923284233 -0.00244634436
vn -0.379024893 0.925362289 -0.0066938824
vn -0.389369279 0.921081483 -0.00069636642
vn 0.375662744 0.926756203 0.000671834277
vn 0.386132926 0.922417939 0.00681942189
vn 0.375662744 0.926756203 0.000671834277
vn -0.389369279 0.921081483 -0.00069636642
vn -0.397503167 0.901627541 0.170467377
vn -0.157991484 0.901628137 0.402623177
vn 0.462119013 0.874669313 0.146285996
vn -0 -0 -1
vn -0.16264677 -0.457301229 -0.874312162
vn -0.460312784 0.162424281 -0.87277168
vn -0 0 -1
vn 0.924105048 -0.38209331 -0.00588547019
vn 0.999911487 -0 -0.0133011518
vn 0.999911487 -0 -0.0133011518
vn 0.924105048 0.382093251 -0.00588547019
vn 0.924326956 -0.381252408 0.0163243636
vn 0.924105048 -0.38209331 -0.00588547019
vn 0.924105048 0.382093251 -0.00588547019
vn 0.924326956 0.381252408 0.0163243636
vn 0.922631562 -0.385679036 0.00165005669
vn 0.924326956 -0.381252408 0.0163243636
vn 0.924326956 0.381252408 0.0163243636
vn 0.922631562 0.385678947 0.00165005738
vn 0.878158808 -0.458157063 0.137583271
vn 0.922631562 -0.385679036 0.00165005669
vn 0.922631562 0.385678947 0.00165005738
vn 0.878158808 0.458157063 0.137583286
vn -0 -0 1
vn 0.164889991 -0.458157569 0.873443186
vn 0.164889976 0.45815748 0.873443186
vn -0 -0 1
vn -0.924986243 -0.379997015 -0.00165425916
vn -0.999514103 -0 0.0311720483
vn -0.999514103 -0 0.0311720483
vn -0.924986243 0.379996985 -0.00165425986
vn -0.923106909 -0.384197712 -0.0163028166
vn -0.924986243 -0.379997015 -0.00165425916
vn -0.924986243 0.379996985 -0.00165425986
vn -0.923106909 0.384197712 -0.0163028184
vn -0.923610389 -0.38328743 0.00588234235
vn -0.923106909 -0.384197712 -0.0163028166
vn -0.923106909 0.384197712 -0.0163028184
vn -0.923610389 0.38328737 0.00588234235
vn -0.876398563 -0.457300603 -0.151002601
vn -0.923610389 -0.38328743 0.00588234235
vn -0.923610389 0.38328737 0.00588234235
vn -0.878818095 0.16242452 -0.448661268
g 
f 2//1 13//2 14//3 1//4
f 3//5 22//6 13//7 2//8
f 4//9 21//10 22//11 3//12
f 6//13 51//14 52//15 5//16
f 7//17 43//18 44//19 6//20
f 8//21 42//22 43//23 7//24
f 9//25 41//26 42//27 8//28
f 10//29 40//30 41//31 9//32
f 12//33 37//34 38//35 11//36
f 1//37 14//38 15//39 12//40
f 16//41 36//42 37//43 15//44
f 17//45 24//46 25//47 16//48
f 18//49 23//50 24//51 17//52
f 19//53 34//54 23//55 18//56
f 20//57 33//58 34//59 19//60
f 21//61 52//62 49//63 20//64
f 26//65 35//66 36//67 25//68
f 28//69 48//70 39//71 27//72
f 29//73 47//74 48//75 28//76
f 30//77 46//78 47//79 29//80
f 31//81 45//82 46//83 30//84
f 32//85 49//86 50//87 31//88
f 35//89 39//90 40//91 38//92
f 45//93 50//94 51//95 44//96
f 4//97 5//98 52//99 21//100
f 12//101 15//102 37//103
f 16//104 25//105 36//106
f 20//107 49//108 32//109 33//110
f 26//111 27//112 39//113 35//114
f 10//115 11//116 38//117 40//118
f 6//119 44//120 51//121
f 31//122 50//123 45//124
f 1//125 12//126 11//127 10//128 9//129
f 1//130 9//131 8//132 2//133
f 2//134 8//135 7//136 3//137
f 4//138 3//139 7//140 6//141 5//142
f 27//143 26//144 25//145 24//146 28//147
f 24//148 23//149 29//150 28//151
f 23//152 34//153 30//154 29//155
f 30//156 34//157 33//158 32//159 31//160
f 38//161 37//162 36//163 35//164
f 41//165 40//166 39//167 48//168
f 42//169 41//170 48//171 47//172
f 43//173 42//174 47//175 46//176
f 44//177 43//178 46//179 45//180
f 52//181 51//182 50//183 49//184
f 22//185 21//186 20//187 19//188
f 13//189 22//190 19//191 18//192
f 14//193 13//194 18//195 17//196
f 15//197 14//198 17//199 16//200
