# File exported by Houdini 17.0.352 (www.sidefx.com)
# 132 points
# 440 vertices
# 106 primitives
# Bounds: [-0.219999999, -0.608401477, -0.0399999991] to [0.219999999, 0.646630049, 0.451113939]
g 
v 0.219999999 0.369000018 -0.0399999991
v 0.0890000015 0.5 -0.0399999991
v 0.0890000015 0.5 0.0399999991
v 0.219999999 0.369000018 0.0399999991
v -0.219999999 0.369000018 0.0399999991
v -0.0890000015 0.5 0.0399999991
v -0.0890000015 0.5 -0.0399999991
v -0.219999999 0.369000018 -0.0399999991
v -0.130999997 -0.5 0.0399999991
v -0.219999999 -0.410999984 0.0399999991
v -0.219999999 -0.410999984 -0.0399999991
v -0.130999997 -0.5 -0.0399999991
v 0.219999999 -0.410999984 0.0399999991
v 0.130999997 -0.5 0.0399999991
v 0.130999997 -0.5 -0.0399999991
v 0.219999999 -0.410999984 -0.0399999991
v 0.0858729482 0.0513888001 0.182879299
v 0.069636479 0.0513888001 0.303493351
v -0.0696364939 0.0513887927 0.303493351
v -0.0858729482 0.0513887927 0.182879299
v -0.0696364716 0.0513887927 0.0622657239
v 0.0696364716 0.0513888001 0.0622657239
v 0.167832226 0.0513888039 0.182879299
v 0.122111984 0.0513888001 0.394383758
v -0.122111998 0.0513887927 0.394383758
v -0.167832226 0.051388789 0.182879299
v 0.0858729482 -0.0513887927 0.182879299
v 0.069636479 -0.0513887927 0.303493351
v 0.122111984 -0.0513887927 0.394383758
v 0.167832226 -0.051388789 0.182879299
v -0.0696364939 -0.0513888001 0.303493351
v -0.122111998 -0.0513888001 0.394383758
v -0.0858729482 -0.0513888001 0.182879299
v -0.167832226 -0.0513888039 0.182879299
v -0.0696364716 -0.0513888001 0.0622657239
v 0.0696364716 -0.0513887927 0.0622657239
v -0.133608371 0.0513887927 0.0245582163
v -0.0914068669 0.0513887927 0.0245582163
v 0.0914068669 0.0513888001 0.0245582163
v 0.133608371 0.0513888001 0.0245582163
v -0.0914068669 -0.0513888001 0.0245582163
v -0.133608371 -0.0513888001 0.0245582163
v 0.0914068669 -0.0513887927 0.0245582163
v 0.133608371 -0.0513887927 0.0245582163
v -0.138877973 0.0333878808 0.20730713
v -0.0888779685 0.0333878808 0.20730713
v -0.0888779685 -0.0304344818 0.284292251
v -0.138877973 -0.0304344818 0.284292251
v -0.138877973 -0.263534635 -0.0388480872
v -0.0888779685 -0.263534635 -0.0388480872
v -0.0888779685 -0.327356964 0.0381370299
v -0.138877973 -0.327356964 0.0381370299
v 0.138877973 0.0333878808 0.20730713
v 0.0888779685 0.0333878808 0.20730713
v 0.0888779685 -0.0304344818 0.284292251
v 0.138877973 -0.0304344818 0.284292251
v 0.138877973 -0.263534635 -0.0388480872
v 0.0888779685 -0.263534635 -0.0388480872
v 0.0888779685 -0.327356964 0.0381370299
v 0.138877973 -0.327356964 0.0381370299
v -0.0376230106 -0.606814861 0.0279830545
v -0.0412968248 -0.604189456 0.0198893398
v -0.0498237014 -0.602063119 0.0169450417
v -0.0582087189 -0.601681411 0.0208748952
v -0.0615400486 -0.603267968 0.0293768346
v -0.0578662343 -0.605893373 0.0374705493
v -0.049339354 -0.608019769 0.0404148474
v -0.0409543365 -0.608401477 0.036484994
v 0.0181441978 -0.380098224 0.084373042
v 0.00890086405 -0.372939378 0.0639554709
v -0.0127956513 -0.367883265 0.0563976318
v -0.0342358202 -0.367891669 0.0661267936
v -0.0428602919 -0.372959673 0.0874437541
v -0.03361696 -0.380118489 0.107861325
v -0.0119204503 -0.385174632 0.115419164
v 0.00951972976 -0.385166228 0.105690002
v 0.0674701706 -0.139625758 0.163940907
v 0.050909698 -0.123900071 0.127700552
v 0.011147622 -0.117553934 0.113019422
v -0.0285239667 -0.124304846 0.128497526
v -0.0448659994 -0.140198201 0.165068001
v -0.0283055194 -0.155923888 0.201308355
v 0.0114565473 -0.16227001 0.215989485
v 0.0511281565 -0.155519098 0.200511381
v 0.0492575094 0.0326788127 0.257787049
v 0.0326480269 0.0473205447 0.220414534
v -0.00779156294 0.0556166172 0.206566736
v -0.0483722985 0.0527072996 0.224355474
v -0.0653225332 0.0402968228 0.263360381
v -0.0487130471 0.0256551057 0.300732851
v -0.00827347022 0.0173590332 0.314580679
v 0.0323072821 0.0202683508 0.296791911
v 0.103106931 0.227610841 0.292930782
v 0.0851027369 0.240587488 0.253195167
v 0.0431022085 0.251077175 0.238886818
v 0.00170868635 0.252935171 0.258387268
v -0.0148300789 0.245073065 0.300273538
v 0.00317411683 0.232096419 0.340009093
v 0.0451746434 0.221606746 0.354317486
v 0.0865681767 0.21974875 0.334816992
v 0.122288615 0.442454398 0.362634122
v 0.0996117294 0.457940161 0.319929838
v 0.057355158 0.465958834 0.303452432
v 0.0154759884 0.46230489 0.322854102
v -0.00628977269 0.449610591 0.366769671
v 0.0131480321 0.434456885 0.409473956
v 0.0588591546 0.426084042 0.425951421
v 0.104066685 0.429396749 0.406549692
v 0.129792511 0.63598597 0.347246826
v 0.11297664 0.63764739 0.312690437
v 0.0756826401 0.641453147 0.299356878
v 0.0397568569 0.645173907 0.315056741
v 0.0262441188 0.646630049 0.350593328
v 0.043060001 0.644968688 0.385149777
v 0.0803539902 0.641162932 0.398483336
v 0.116279781 0.637442172 0.382783413
v 0.0615530536 0.51767534 0.278289974
v 0.00279276073 0.515677571 0.305662215
v -0.0205403045 0.503003955 0.367619216
v 0.00522205979 0.487078428 0.427867293
v 0.0649885908 0.477230072 0.451113939
v 0.123748913 0.479227901 0.423741639
v 0.147081956 0.491901517 0.361784697
v 0.121319592 0.507826984 0.30153662
v 0.069635205 0.596513152 0.262508094
v 0.0113459937 0.599110603 0.289880395
v -0.0111023039 0.595067382 0.351837337
v 0.0154401921 0.586751699 0.412085414
v 0.0754252747 0.579035163 0.43533206
v 0.133714497 0.576437771 0.407959759
v 0.156162798 0.580481052 0.346002817
v 0.129620284 0.588796496 0.28575474
vn 0.390320241 0.920679092 0
vn 0.989818633 0.142333984 0
vn 0.989818633 0.142333984 0
vn 0.390320241 0.920679092 0
vn -0.390320241 0.920679092 0
vn -0.989818633 0.142333984 0
vn -0.989818633 0.142333984 0
vn -0.390320241 0.920679092 0
vn 0.390320241 0.920679092 0
vn 0.390320241 0.920679092 0
vn -0.390320241 0.920679092 0
vn -0.390320241 0.920679092 0
vn -0.994796395 -0.101883642 0
vn -0.245783255 -0.969324827 0
vn -0.245783255 -0.969324827 0
vn -0.994796395 -0.101883642 0
vn 0.245783255 -0.969324827 0
vn 0.994796395 -0.101883642 0
vn 0.994796395 -0.101883642 0
vn 0.245783255 -0.969324827 0
vn 0.245783255 -0.969324827 0
vn 0.245783255 -0.969324827 0
vn -0.245783255 -0.969324827 0
vn -0.245783255 -0.969324827 0
vn -0 0 -1
vn -0 0 -1
vn -0 0 -1
vn -0 0 -1
vn -0 0 -1
vn -0 0 -1
vn -0 0 -1
vn -0 0 -1
vn 0.989818633 0.142333984 0
vn 0.989818633 0.142333984 0
vn 0.994796395 -0.101883642 0
vn 0.994796395 -0.101883642 0
vn -0 0 1
vn -0 0 1
vn -0 0 1
vn -0 0 1
vn -0 0 1
vn -0 0 1
vn -0 0 1
vn -0 0 1
vn -0.989818633 0.142333984 0
vn -0.989818633 0.142333984 0
vn -0.994796395 -0.101883642 0
vn -0.994796395 -0.101883642 0
vn -2.8681276e-08 1 -8.91585417e-10
vn -3.57072025e-08 1 2.25016672e-09
vn -3.57072025e-08 1 2.25016672e-09
vn -2.8681276e-08 1 -8.91585417e-10
vn -3.57072025e-08 1 2.25016672e-09
vn -3.57072025e-08 1 -2.25016761e-09
vn -3.57072025e-08 1 -2.25016761e-09
vn -3.57072025e-08 1 2.25016672e-09
vn -3.57072025e-08 1 -2.25016761e-09
vn -2.8681276e-08 1 8.91584251e-10
vn -2.8681276e-08 1 8.91584251e-10
vn -3.57072025e-08 1 -2.25016761e-09
vn -2.8681276e-08 1 8.91584251e-10
vn -3.28671383e-08 0.99999994 5.07495113e-09
vn -3.28671383e-08 0.99999994 5.07495113e-09
vn -2.57603823e-08 1 7.76701814e-09
vn -2.8681276e-08 1 8.91584251e-10
vn -3.28671383e-08 0.99999994 5.07495113e-09
vn -3.28671383e-08 0.99999994 -5.07495113e-09
vn -3.28671383e-08 0.99999994 -5.07495113e-09
vn -3.28671383e-08 0.99999994 5.07495113e-09
vn -3.28671383e-08 0.99999994 -5.07495113e-09
vn -2.8681276e-08 1 -8.91585417e-10
vn -2.8681276e-08 1 -8.91585417e-10
vn -2.57603823e-08 1 -7.76701814e-09
vn -3.28671383e-08 0.99999994 -5.07495113e-09
vn 2.8681276e-08 -1 8.91585417e-10
vn 2.8681276e-08 -1 8.91585417e-10
vn 3.57072025e-08 -1 -2.25016672e-09
vn 3.57072025e-08 -1 -2.25016672e-09
vn 3.57072025e-08 -1 -2.25016672e-09
vn 3.57072025e-08 -1 -2.25016672e-09
vn 3.57072025e-08 -1 2.25016761e-09
vn 3.57072025e-08 -1 2.25016761e-09
vn 3.57072025e-08 -1 2.25016761e-09
vn 3.57072025e-08 -1 2.25016761e-09
vn 2.8681276e-08 -1 -8.91584251e-10
vn 2.8681276e-08 -1 -8.91584251e-10
vn 2.8681276e-08 -1 -8.91584251e-10
vn 2.8681276e-08 -1 -8.91584251e-10
vn 2.57603823e-08 -1 -7.76701814e-09
vn 3.28671383e-08 -0.99999994 -5.07495113e-09
vn 3.28671383e-08 -0.99999994 -5.07495113e-09
vn 0.977424085 0 0.211286664
vn 0.977424085 0 0.211286664
vn 0.999517143 0 0.0310709663
vn 0.999517143 0 0.0310709663
vn 0.999517143 0 0.0310709663
vn 0.999517143 0 0.0310709663
vn 0.977424085 0 -0.211287215
vn 0.977424085 0 -0.211287215
vn -0.999517143 0 0.031070929
vn -0.999517143 0 0.031070929
vn -0.977424085 0 0.211286604
vn -0.977424085 0 0.211286604
vn 0 0 1
vn 0 0 1
vn 0 0 1
vn 0 0 1
vn -1 0 3.28687122e-08
vn -1 0 3.28687122e-08
vn -0.991060734 0 -0.133411705
vn -0.991060734 0 -0.133411705
vn 0 -0 -1
vn 0 -0 -1
vn 0 -0 -1
vn 0 -0 -1
vn 0.991060734 0 -0.133411586
vn 0.991060734 0 -0.133411586
vn 1 0 9.39106002e-08
vn 1 0 9.39106002e-08
vn 1 0 9.39106002e-08
vn 1 0 9.39106002e-08
vn 0.991060615 0 0.133412272
vn 0.991060615 0 0.133412272
vn 0 0 1
vn 0 0 1
vn 0 0 1
vn 0 0 1
vn -0.991060615 0 0.133412272
vn -0.991060615 0 0.133412272
vn -1 0 3.28687122e-08
vn -1 0 3.28687122e-08
vn 3.28671383e-08 -0.99999994 -5.07495113e-09
vn 3.28671383e-08 -0.99999994 -5.07495113e-09
vn 3.28671383e-08 -0.99999994 5.07495113e-09
vn 3.28671383e-08 -0.99999994 5.07495113e-09
vn 3.28671383e-08 -0.99999994 5.07495113e-09
vn 3.28671383e-08 -0.99999994 5.07495113e-09
vn 2.57603823e-08 -1 7.76701814e-09
vn 2.8681276e-08 -1 8.91585417e-10
vn 2.8681276e-08 -1 8.91585417e-10
vn -0.977424085 0 -0.211287215
vn -0.977424085 0 -0.211287215
vn -0.999517143 0 0.031070929
vn -0.999517143 0 0.031070929
vn 0 0.63822341 -0.769851208
vn 0 0.63822341 -0.769851208
vn 0 0.63822341 -0.769851208
vn 0 0.63822341 -0.769851208
vn 1 0 -0
vn 1 0 -0
vn 1 0 -0
vn 1 0 -0
vn 0 -0.638223469 0.769851148
vn 0 -0.638223469 0.769851148
vn 0 -0.638223469 0.769851148
vn 0 -0.638223469 0.769851148
vn -1 0 -0
vn -1 0 -0
vn -1 0 -0
vn -1 0 -0
vn 0 0.63822341 -0.769851208
vn 0 0.63822341 -0.769851208
vn 0 0.63822341 -0.769851208
vn 0 0.63822341 -0.769851208
vn -1 0 0
vn -1 0 0
vn -1 0 0
vn -1 0 0
vn 0 -0.638223469 0.769851148
vn 0 -0.638223469 0.769851148
vn 0 -0.638223469 0.769851148
vn 0 -0.638223469 0.769851148
vn 1 0 0
vn 1 0 0
vn 1 0 0
vn 1 0 0
vn 0.97240907 -0.219728857 -0.0783576444
vn 0.6698457 -0.00395933213 -0.742489874
vn 0.680018544 0.0468158126 -0.731698871
vn 0.978733003 -0.189804122 -0.0778213814
vn 0.6698457 -0.00395933213 -0.742489874
vn -0.0299688987 0.170631424 -0.984879076
vn -0.0179105904 0.205453455 -0.978503108
vn 0.680018544 0.0468158126 -0.731698871
vn -0.0299688987 0.170631424 -0.984879076
vn -0.72021693 0.202293351 -0.663599968
vn -0.713266253 0.194127798 -0.673472822
vn -0.0179105904 0.205453455 -0.978503108
vn -0.72021693 0.202293351 -0.663599968
vn -0.996765196 0.0717365891 0.0362355225
vn -0.999771833 0.0174425058 0.0123234615
vn -0.713266253 0.194127798 -0.673472822
vn -0.996765196 0.0717365891 0.0362355225
vn -0.694454372 -0.145094275 0.704755962
vn -0.700525284 -0.22261484 0.678016841
vn -0.999771833 0.0174425058 0.0123234615
vn -0.694454372 -0.145094275 0.704755962
vn 0.00981941167 -0.320428014 0.947221935
vn 0.00960683171 -0.382647008 0.923844695
vn -0.700525284 -0.22261484 0.678016841
vn 0.00981941167 -0.320428014 0.947221935
vn 0.700320303 -0.351028711 0.621554792
vn 0.704399228 -0.367888182 0.607025564
vn 0.00960683171 -0.382647008 0.923844695
vn 0.700320303 -0.351028711 0.621554792
vn 0.97240907 -0.219728857 -0.0783576444
vn 0.978733003 -0.189804122 -0.0778213814
vn 0.704399228 -0.367888182 0.607025564
vn 0.978733003 -0.189804122 -0.0778213814
vn 0.680018544 0.0468158126 -0.731698871
vn 0.700924456 0.236281663 -0.672960579
vn 0.998727381 -0.0461358801 -0.0203748923
vn 0.680018544 0.0468158126 -0.731698871
vn -0.0179105904 0.205453455 -0.978503108
vn -0.0136338789 0.351037771 -0.936262071
vn 0.700924456 0.236281663 -0.672960579
vn -0.0179105904 0.205453455 -0.978503108
vn -0.713266253 0.194127798 -0.673472822
vn -0.713103831 0.230850413 -0.661959946
vn -0.0136338789 0.351037771 -0.936262071
vn -0.713266253 0.194127798 -0.673472822
vn -0.999771833 0.0174425058 0.0123234615
vn -0.998435915 -0.053038612 -0.0176808517
vn -0.713103831 0.230850413 -0.661959946
vn -0.999771833 0.0174425058 0.0123234615
vn -0.700525284 -0.22261484 0.678016841
vn -0.700926483 -0.336054355 0.62910223
vn -0.998435915 -0.053038612 -0.0176808517
vn -0.700525284 -0.22261484 0.678016841
vn 0.00960683171 -0.382647008 0.923844695
vn 0.00855767541 -0.447820634 0.894082487
vn -0.700926483 -0.336054355 0.62910223
vn 0.00960683171 -0.382647008 0.923844695
vn 0.704399228 -0.367888182 0.607025564
vn 0.70837903 -0.327029079 0.625500739
vn 0.00855767541 -0.447820634 0.894082487
vn 0.704399228 -0.367888182 0.607025564
vn 0.978733003 -0.189804122 -0.0778213814
vn 0.998727381 -0.0461358801 -0.0203748923
vn 0.70837903 -0.327029079 0.625500739
vn 0.998727381 -0.0461358801 -0.0203748923
vn 0.700924456 0.236281663 -0.672960579
vn 0.69574821 0.17086266 -0.697667837
vn 0.995565832 -0.0911084041 -0.0234118681
vn 0.700924456 0.236281663 -0.672960579
vn -0.0136338789 0.351037771 -0.936262071
vn -0.0278177951 0.322714478 -0.946087539
vn 0.69574821 0.17086266 -0.697667837
vn -0.0136338789 0.351037771 -0.936262071
vn -0.713103831 0.230850413 -0.661959946
vn -0.714407623 0.278518111 -0.641910851
vn -0.0278177951 0.322714478 -0.946087539
vn -0.713103831 0.230850413 -0.661959946
vn -0.998435915 -0.053038612 -0.0176808517
vn -0.997104049 0.0720201731 0.0244295169
vn -0.714407623 0.278518111 -0.641910851
vn -0.998435915 -0.053038612 -0.0176808517
vn -0.700926483 -0.336054355 0.62910223
vn -0.697148919 -0.18709223 0.692083597
vn -0.997104049 0.0720201731 0.0244295169
vn -0.700926483 -0.336054355 0.62910223
vn 0.00855767541 -0.447820634 0.894082487
vn 0.0193297565 -0.338175654 0.940884531
vn -0.697148919 -0.18709223 0.692083597
vn 0.00855767541 -0.447820634 0.894082487
vn 0.70837903 -0.327029079 0.625500739
vn 0.706046402 -0.296748757 0.6429919
vn 0.0193297565 -0.338175654 0.940884531
vn 0.70837903 -0.327029079 0.625500739
vn 0.998727381 -0.0461358801 -0.0203748923
vn 0.995565832 -0.0911084041 -0.0234118681
vn 0.706046402 -0.296748757 0.6429919
vn 0.995565832 -0.0911084041 -0.0234118681
vn 0.69574821 0.17086266 -0.697667837
vn 0.682424426 0.0657594353 -0.727992117
vn 0.985928118 -0.152803615 -0.0678010285
vn 0.69574821 0.17086266 -0.697667837
vn -0.0278177951 0.322714478 -0.946087539
vn -0.0256318655 0.236095741 -0.971391737
vn 0.682424426 0.0657594353 -0.727992117
vn -0.0278177951 0.322714478 -0.946087539
vn -0.714407623 0.278518111 -0.641910851
vn -0.713615239 0.264131635 -0.648835719
vn -0.0256318655 0.236095741 -0.971391737
vn -0.714407623 0.278518111 -0.641910851
vn -0.997104049 0.0720201731 0.0244295169
vn -0.990416884 0.131984338 0.0406751335
vn -0.713615239 0.264131635 -0.648835719
vn -0.997104049 0.0720201731 0.0244295169
vn -0.697148919 -0.18709223 0.692083597
vn -0.685292006 -0.0930781811 0.722295821
vn -0.990416884 0.131984338 0.0406751335
vn -0.697148919 -0.18709223 0.692083597
vn 0.0193297565 -0.338175654 0.940884531
vn 0.0220393036 -0.268298656 0.963083625
vn -0.685292006 -0.0930781811 0.722295821
vn 0.0193297565 -0.338175654 0.940884531
vn 0.706046402 -0.296748757 0.6429919
vn 0.710221589 -0.294917732 0.639225185
vn 0.0220393036 -0.268298656 0.963083625
vn 0.706046402 -0.296748757 0.6429919
vn 0.995565832 -0.0911084041 -0.0234118681
vn 0.985928118 -0.152803615 -0.0678010285
vn 0.710221589 -0.294917732 0.639225185
vn 0.985928118 -0.152803615 -0.0678010285
vn 0.682424426 0.0657594353 -0.727992117
vn 0.684231162 0.0176578872 -0.729051411
vn 0.983702183 -0.162202805 -0.0775905922
vn 0.682424426 0.0657594353 -0.727992117
vn -0.0256318655 0.236095741 -0.971391737
vn -0.0255905837 0.125765845 -0.991729915
vn 0.684231162 0.0176578872 -0.729051411
vn -0.0256318655 0.236095741 -0.971391737
vn -0.713615239 0.264131635 -0.648835719
vn -0.72173214 0.107659705 -0.683748484
vn -0.0255905837 0.125765845 -0.991729915
vn -0.713615239 0.264131635 -0.648835719
vn -0.990416884 0.131984338 0.0406751335
vn -0.999351323 -0.0344276652 -0.0105638281
vn -0.72173214 0.107659705 -0.683748484
vn -0.990416884 0.131984338 0.0406751335
vn -0.685292006 -0.0930781811 0.722295821
vn -0.69808954 -0.233059213 0.677018762
vn -0.999351323 -0.0344276652 -0.0105638281
vn -0.685292006 -0.0930781811 0.722295821
vn 0.0220393036 -0.268298656 0.963083625
vn 0.0116752395 -0.356315762 0.934292734
vn -0.69808954 -0.233059213 0.677018762
vn 0.0220393036 -0.268298656 0.963083625
vn 0.710221589 -0.294917732 0.639225185
vn 0.7094329 -0.324006379 0.625879288
vn 0.0116752395 -0.356315762 0.934292734
vn 0.710221589 -0.294917732 0.639225185
vn 0.985928118 -0.152803615 -0.0678010285
vn 0.983702183 -0.162202805 -0.0775905922
vn 0.7094329 -0.324006379 0.625879288
vn 0.52637732 0.850244761 0.00326972967
vn 0.373548716 0.883208811 -0.28355509
vn 0.0776325986 0.92079407 -0.382245213
vn -0.217834041 0.940070033 -0.26232931
vn -0.177718416 0.979813457 -0.0915512666
vn -0.0177102704 0.949551463 0.31311062
vn 0.10202992 0.871827722 0.479068339
vn 0.417018652 0.847207248 0.329143435
vn -0.0551469289 -0.279456943 -0.958573282
vn -0.0255905837 0.125765845 -0.991729915
vn -0.72173214 0.107659705 -0.683748484
vn -0.719740629 -0.161438286 -0.675211906
vn -0.719740629 -0.161438286 -0.675211906
vn -0.72173214 0.107659705 -0.683748484
vn -0.999351323 -0.0344276652 -0.0105638281
vn -0.999351501 -0.0293585323 0.0208468642
vn -0.999351501 -0.0293585323 0.0208468642
vn -0.999351323 -0.0344276652 -0.0105638281
vn -0.69808954 -0.233059213 0.677018762
vn -0.689215541 0.0136324381 0.724428058
vn -0.689215541 0.0136324381 0.724428058
vn -0.69808954 -0.233059213 0.677018762
vn 0.0116752395 -0.356315762 0.934292734
vn 0.0308421794 -0.0427750759 0.99860847
vn 0.0308421794 -0.0427750759 0.99860847
vn 0.0116752395 -0.356315762 0.934292734
vn 0.7094329 -0.324006379 0.625879288
vn 0.732561946 -0.138763368 0.666406512
vn 0.732561946 -0.138763368 0.666406512
vn 0.7094329 -0.324006379 0.625879288
vn 0.983702183 -0.162202805 -0.0775905922
vn 0.967584848 -0.243278906 -0.067786999
vn 0.967584848 -0.243278906 -0.067786999
vn 0.983702183 -0.162202805 -0.0775905922
vn 0.684231162 0.0176578872 -0.729051411
vn 0.620777786 -0.306748956 -0.721484601
vn 0.620777786 -0.306748956 -0.721484601
vn 0.684231162 0.0176578872 -0.729051411
vn -0.0255905837 0.125765845 -0.991729915
vn -0.0551469289 -0.279456943 -0.958573282
vn -0.40377003 0.147605121 -0.902874649
vn -0.0551469289 -0.279456943 -0.958573282
vn -0.719740629 -0.161438286 -0.675211906
vn -0.7267313 0.211821109 -0.653447449
vn -0.7267313 0.211821109 -0.653447449
vn -0.217834041 0.940070033 -0.26232931
vn 0.0776325986 0.92079407 -0.382245213
vn -0.40377003 0.147605121 -0.902874649
vn -0.7267313 0.211821109 -0.653447449
vn -0.719740629 -0.161438286 -0.675211906
vn -0.999351501 -0.0293585323 0.0208468642
vn -0.953274906 0.293172717 0.0729151368
vn -0.953274906 0.293172717 0.0729151368
vn -0.177718416 0.979813457 -0.0915512666
vn -0.217834041 0.940070033 -0.26232931
vn -0.7267313 0.211821109 -0.653447449
vn -0.953274906 0.293172717 0.0729151368
vn -0.999351501 -0.0293585323 0.0208468642
vn -0.689215541 0.0136324381 0.724428058
vn -0.615701914 0.32241869 0.718997478
vn -0.615701914 0.32241869 0.718997478
vn -0.741969645 0.540802717 0.396249175
vn -0.741969645 0.540802717 0.396249175
vn -0.953274906 0.293172717 0.0729151368
vn -0.615701914 0.32241869 0.718997478
vn -0.689215541 0.0136324381 0.724428058
vn 0.0308421794 -0.0427750759 0.99860847
vn 0.0553747937 0.282909721 0.957546711
vn 0.0553747937 0.282909721 0.957546711
vn 0.10202992 0.871827722 0.479068339
vn -0.0177102704 0.949551463 0.31311062
vn -0.615701914 0.32241869 0.718997478
vn 0.0553747937 0.282909721 0.957546711
vn 0.0308421794 -0.0427750759 0.99860847
vn 0.732561946 -0.138763368 0.666406512
vn 0.716150701 0.187223077 0.672365725
vn 0.716150701 0.187223077 0.672365725
vn 0.417018652 0.847207248 0.329143435
vn 0.10202992 0.871827722 0.479068339
vn 0.0553747937 0.282909721 0.957546711
vn 0.716150701 0.187223077 0.672365725
vn 0.732561946 -0.138763368 0.666406512
vn 0.967584848 -0.243278906 -0.067786999
vn 0.995815337 0.0903101861 -0.014002407
vn 0.995815337 0.0903101861 -0.014002407
vn 0.52637732 0.850244761 0.00326972967
vn 0.417018652 0.847207248 0.329143435
vn 0.716150701 0.187223077 0.672365725
vn 0.995815337 0.0903101861 -0.014002407
vn 0.967584848 -0.243278906 -0.067786999
vn 0.620777786 -0.306748956 -0.721484601
vn 0.697775781 0.0615388379 -0.713668048
vn 0.697775781 0.0615388379 -0.713668048
vn 0.373548716 0.883208811 -0.28355509
vn 0.52637732 0.850244761 0.00326972967
vn 0.995815337 0.0903101861 -0.014002407
vn 0.697775781 0.0615388379 -0.713668048
vn 0.620777786 -0.306748956 -0.721484601
vn -0.0551469289 -0.279456943 -0.958573282
vn 0.361246884 0.0671037138 -0.930052519
vn 0.361246884 0.0671037138 -0.930052519
vn 0.0776325986 0.92079407 -0.382245213
vn 0.373548716 0.883208811 -0.28355509
vn 0.697775781 0.0615388379 -0.713668048
g Wood
f 3//1 4//2 1//3 2//4
f 7//5 8//6 5//7 6//8
f 3//9 2//10 7//11 6//12
f 11//13 12//14 9//15 10//16
f 15//17 16//18 13//19 14//20
f 15//21 14//22 9//23 12//24
f 1//25 16//26 15//27 12//28 11//29 8//30 7//31 2//32
f 1//33 4//34 13//35 16//36
f 5//37 10//38 9//39 14//40 13//41 4//42 3//43 6//44
f 5//45 8//46 11//47 10//48
f 61//177 62//178 70//179 69//180
f 62//181 63//182 71//183 70//184
f 63//185 64//186 72//187 71//188
f 64//189 65//190 73//191 72//192
f 65//193 66//194 74//195 73//196
f 66//197 67//198 75//199 74//200
f 67//201 68//202 76//203 75//204
f 68//205 61//206 69//207 76//208
f 69//209 70//210 78//211 77//212
f 70//213 71//214 79//215 78//216
f 71//217 72//218 80//219 79//220
f 72//221 73//222 81//223 80//224
f 73//225 74//226 82//227 81//228
f 74//229 75//230 83//231 82//232
f 75//233 76//234 84//235 83//236
f 76//237 69//238 77//239 84//240
f 77//241 78//242 86//243 85//244
f 78//245 79//246 87//247 86//248
f 79//249 80//250 88//251 87//252
f 80//253 81//254 89//255 88//256
f 81//257 82//258 90//259 89//260
f 82//261 83//262 91//263 90//264
f 83//265 84//266 92//267 91//268
f 84//269 77//270 85//271 92//272
f 85//273 86//274 94//275 93//276
f 86//277 87//278 95//279 94//280
f 87//281 88//282 96//283 95//284
f 88//285 89//286 97//287 96//288
f 89//289 90//290 98//291 97//292
f 90//293 91//294 99//295 98//296
f 91//297 92//298 100//299 99//300
f 92//301 85//302 93//303 100//304
f 93//305 94//306 102//307 101//308
f 94//309 95//310 103//311 102//312
f 95//313 96//314 104//315 103//316
f 96//317 97//318 105//319 104//320
f 97//321 98//322 106//323 105//324
f 98//325 99//326 107//327 106//328
f 99//329 100//330 108//331 107//332
f 100//333 93//334 101//335 108//336
g Metal
f 17//49 18//50 24//51 23//52
f 18//53 19//54 25//55 24//56
f 19//57 20//58 26//59 25//60
f 20//61 21//62 38//63 37//64 26//65
f 21//66 22//67 39//68 38//69
f 22//70 17//71 23//72 40//73 39//74
f 27//75 30//76 29//77 28//78
f 28//79 29//80 32//81 31//82
f 31//83 32//84 34//85 33//86
f 33//87 34//88 42//89 41//90 35//91
f 24//92 29//93 30//94 23//95
f 23//96 30//97 44//98 40//99
f 26//100 34//101 32//102 25//103
f 25//104 32//105 29//106 24//107
f 17//108 27//109 28//110 18//111
f 18//112 28//113 31//114 19//115
f 19//116 31//117 33//118 20//119
f 20//120 33//121 35//122 21//123
f 21//124 35//125 36//126 22//127
f 22//128 36//129 27//130 17//131
f 35//132 41//133 43//134 36//135
f 36//136 43//137 44//138 30//139 27//140
f 37//141 42//142 34//143 26//144
f 45//145 46//146 50//147 49//148
f 46//149 47//150 51//151 50//152
f 47//153 48//154 52//155 51//156
f 48//157 45//158 49//159 52//160
f 53//161 57//162 58//163 54//164
f 54//165 58//166 59//167 55//168
f 55//169 59//170 60//171 56//172
f 56//173 60//174 57//175 53//176
g TorchHead
f 109//337 110//338 111//339 112//340 113//341 114//342 115//343 116//344
f 117//345 103//346 104//347 118//348
f 118//349 104//350 105//351 119//352
f 119//353 105//354 106//355 120//356
f 120//357 106//358 107//359 121//360
f 121//361 107//362 108//363 122//364
f 122//365 108//366 101//367 123//368
f 123//369 101//370 102//371 124//372
f 124//373 102//374 103//375 117//376
f 125//377 117//378 118//379 126//380
f 126//381 112//382 111//383 125//384
f 126//385 118//386 119//387 127//388
f 127//389 113//390 112//391 126//392
f 127//393 119//394 120//395 128//396
f 128//397 114//398 113//399 127//400
f 128//401 120//402 121//403 129//404
f 129//405 115//406 114//407 128//408
f 129//409 121//410 122//411 130//412
f 130//413 116//414 115//415 129//416
f 130//417 122//418 123//419 131//420
f 131//421 109//422 116//423 130//424
f 131//425 123//426 124//427 132//428
f 132//429 110//430 109//431 131//432
f 132//433 124//434 117//435 125//436
f 125//437 111//438 110//439 132//440
